<svg width="24" height="24" viewBox="0 0 24 24" fill="none" xmlns="http://www.w3.org/2000/svg">
<path d="M12 22C17.5228 22 22 17.5228 22 12C22 6.47715 17.5228 2 12 2C6.47715 2 2 6.47715 2 12C2 17.5228 6.47715 22 12 22Z" stroke="#FB8C00" stroke-width="1.5" stroke-linecap="round" stroke-linejoin="round"/>
<path d="M12 8V12" stroke="#FB8C00" stroke-width="1.5" stroke-linecap="round" stroke-linejoin="round"/>
<path d="M12.125 15.75H12M12.25 15.75C12.25 15.8881 12.1381 16 12 16C11.8619 16 11.75 15.8881 11.75 15.75C11.75 15.6119 11.8619 15.5 12 15.5C12.1381 15.5 12.25 15.6119 12.25 15.75Z" stroke="#FB8C00" stroke-width="1.5" stroke-linecap="round" stroke-linejoin="round"/>
</svg>
