<svg width="198" height="198" viewBox="0 0 198 198" fill="none" xmlns="http://www.w3.org/2000/svg">
<circle opacity="0.1" cx="98.8001" cy="98.8002" r="61.6" fill="#6BCCFE"/>
<g filter="url(#filter0_d_308_45208)">
<path d="M41.9334 65.9656C40.9768 65.4133 39.7507 65.74 39.2269 66.7125C31.0583 81.8782 28.9711 99.6176 33.4424 116.305C38.0866 133.637 49.4257 148.415 64.9654 157.386C80.5051 166.358 98.9724 168.79 116.305 164.145C132.992 159.674 147.311 148.997 156.361 134.34C156.941 133.4 156.611 132.175 155.654 131.622L98.7938 98.794L41.9334 65.9656Z" fill="url(#paint0_linear_308_45208)"/>
</g>
<g filter="url(#filter1_d_308_45208)">
<path d="M37.8932 133.955C36.9367 134.507 36.6066 135.732 37.1851 136.673C46.8547 152.401 62.1931 163.86 80.0756 168.652C98.603 173.616 118.344 171.017 134.955 161.427C151.566 151.836 163.687 136.04 168.652 117.512C173.443 99.6298 171.189 80.617 162.403 64.3788C161.877 63.4073 160.651 63.0806 159.695 63.6329L98.7939 98.7939L37.8932 133.955Z" fill="url(#paint1_linear_308_45208)"/>
</g>
<g filter="url(#filter2_d_308_45208)">
<path d="M98.8001 174.001C98.8001 175.105 99.6958 176.003 100.8 175.975C120.55 175.463 139.383 167.395 153.389 153.389C167.867 138.911 176 119.275 176 98.8006C176 78.3259 167.867 58.6898 153.389 44.2119C139.383 30.2062 120.55 22.1377 100.8 21.6265C99.6959 21.5979 98.8001 22.496 98.8001 23.6006L98.8001 98.8006L98.8001 174.001Z" fill="url(#paint2_linear_308_45208)"/>
</g>
<g filter="url(#filter3_d_308_45208)">
<circle cx="98.8001" cy="98.7998" r="44" fill="white"/>
</g>
<defs>
<filter id="filter0_d_308_45208" x="23.1369" y="55.6973" width="141.511" height="116.754" filterUnits="userSpaceOnUse" color-interpolation-filters="sRGB">
<feFlood flood-opacity="0" result="BackgroundImageFix"/>
<feColorMatrix in="SourceAlpha" type="matrix" values="0 0 0 0 0 0 0 0 0 0 0 0 0 0 0 0 0 0 127 0" result="hardAlpha"/>
<feOffset dy="-2"/>
<feGaussianBlur stdDeviation="4"/>
<feColorMatrix type="matrix" values="0 0 0 0 0 0 0 0 0 0 0 0 0 0 0 0 0 0 0.12 0"/>
<feBlend mode="normal" in2="BackgroundImageFix" result="effect1_dropShadow_308_45208"/>
<feBlend mode="normal" in="SourceGraphic" in2="effect1_dropShadow_308_45208" result="shape"/>
</filter>
<filter id="filter1_d_308_45208" x="28.899" y="53.3652" width="150.217" height="123.751" filterUnits="userSpaceOnUse" color-interpolation-filters="sRGB">
<feFlood flood-opacity="0" result="BackgroundImageFix"/>
<feColorMatrix in="SourceAlpha" type="matrix" values="0 0 0 0 0 0 0 0 0 0 0 0 0 0 0 0 0 0 127 0" result="hardAlpha"/>
<feOffset dy="-2"/>
<feGaussianBlur stdDeviation="4"/>
<feColorMatrix type="matrix" values="0 0 0 0 0 0 0 0 0 0 0 0 0 0 0 0 0 0 0.12 0"/>
<feBlend mode="normal" in2="BackgroundImageFix" result="effect1_dropShadow_308_45208"/>
<feBlend mode="normal" in="SourceGraphic" in2="effect1_dropShadow_308_45208" result="shape"/>
</filter>
<filter id="filter2_d_308_45208" x="90.8001" y="11.626" width="93.2" height="170.35" filterUnits="userSpaceOnUse" color-interpolation-filters="sRGB">
<feFlood flood-opacity="0" result="BackgroundImageFix"/>
<feColorMatrix in="SourceAlpha" type="matrix" values="0 0 0 0 0 0 0 0 0 0 0 0 0 0 0 0 0 0 127 0" result="hardAlpha"/>
<feOffset dy="-2"/>
<feGaussianBlur stdDeviation="4"/>
<feColorMatrix type="matrix" values="0 0 0 0 0 0 0 0 0 0 0 0 0 0 0 0 0 0 0.12 0"/>
<feBlend mode="normal" in2="BackgroundImageFix" result="effect1_dropShadow_308_45208"/>
<feBlend mode="normal" in="SourceGraphic" in2="effect1_dropShadow_308_45208" result="shape"/>
</filter>
<filter id="filter3_d_308_45208" x="44.8001" y="46.7998" width="108" height="108" filterUnits="userSpaceOnUse" color-interpolation-filters="sRGB">
<feFlood flood-opacity="0" result="BackgroundImageFix"/>
<feColorMatrix in="SourceAlpha" type="matrix" values="0 0 0 0 0 0 0 0 0 0 0 0 0 0 0 0 0 0 127 0" result="hardAlpha"/>
<feOffset dy="2"/>
<feGaussianBlur stdDeviation="5"/>
<feColorMatrix type="matrix" values="0 0 0 0 0 0 0 0 0 0 0 0 0 0 0 0 0 0 0.1 0"/>
<feBlend mode="normal" in2="BackgroundImageFix" result="effect1_dropShadow_308_45208"/>
<feBlend mode="normal" in="SourceGraphic" in2="effect1_dropShadow_308_45208" result="shape"/>
</filter>
<linearGradient id="paint0_linear_308_45208" x1="64.9654" y1="157.386" x2="132.622" y2="40.2015" gradientUnits="userSpaceOnUse">
<stop stop-color="#7AD3FF"/>
<stop offset="1" stop-color="#4FBAF0"/>
</linearGradient>
<linearGradient id="paint1_linear_308_45208" x1="62.6329" y1="36.1612" x2="167" y2="320" gradientUnits="userSpaceOnUse">
<stop stop-color="#FFB300"/>
<stop offset="0.79966" stop-color="#CC8F00"/>
</linearGradient>
<linearGradient id="paint2_linear_308_45208" x1="134.5" y1="34.0005" x2="-13.4999" y2="219.5" gradientUnits="userSpaceOnUse">
<stop stop-color="#8B5CF6"/>
<stop offset="1" stop-color="#513690"/>
</linearGradient>
</defs>
</svg>
