<svg width="15" height="15" viewBox="0 0 15 15" fill="none" xmlns="http://www.w3.org/2000/svg">
<g clip-path="url(#clip0_946_4045)">
<path d="M7.56081 13.0796C8.67681 12.116 12.0002 8.996 12.0002 6.0002C12.0002 4.72716 11.4945 3.50626 10.5943 2.60608C9.69415 1.70591 8.47325 1.2002 7.20021 1.2002C5.92717 1.2002 4.70627 1.70591 3.8061 2.60608C2.90592 3.50626 2.40021 4.72716 2.40021 6.0002C2.40021 8.996 5.72361 12.116 6.83961 13.0796C6.94357 13.1578 7.07013 13.2 7.20021 13.2C7.33029 13.2 7.45684 13.1578 7.56081 13.0796Z" stroke="#8B5CF6" stroke-width="1.2" stroke-linecap="round" stroke-linejoin="round"/>
<path d="M7.20021 7.8002C8.19432 7.8002 9.00021 6.99431 9.00021 6.0002C9.00021 5.00608 8.19432 4.2002 7.20021 4.2002C6.20609 4.2002 5.40021 5.00608 5.40021 6.0002C5.40021 6.99431 6.20609 7.8002 7.20021 7.8002Z" stroke="#8B5CF6" stroke-width="1.2" stroke-linecap="round" stroke-linejoin="round"/>
</g>
<defs>
<clipPath id="clip0_946_4045">
<rect width="14.4" height="14.4" fill="white"/>
</clipPath>
</defs>
</svg>
