<svg width="24" height="24" viewBox="0 0 24 24" fill="none" xmlns="http://www.w3.org/2000/svg">
<path d="M8 11.5C9.38071 11.5 10.5 10.3807 10.5 9C10.5 7.61929 9.38071 6.5 8 6.5C6.61929 6.5 5.5 7.61929 5.5 9C5.5 10.3807 6.61929 11.5 8 11.5Z" stroke="#2877F0" stroke-width="1.6" stroke-linecap="round" stroke-linejoin="round"/>
<path d="M16 11.5C17.3807 11.5 18.5 10.3807 18.5 9C18.5 7.61929 17.3807 6.5 16 6.5C14.6193 6.5 13.5 7.61929 13.5 9C13.5 10.3807 14.6193 11.5 16 11.5Z" stroke="#2877F0" stroke-width="1.6" stroke-linecap="round" stroke-linejoin="round"/>
<path d="M4.25 20V16.75C4.25 14.9551 5.70507 13.5 7.5 13.5H8.5C10.2949 13.5 11.75 14.9551 11.75 16.75V20" stroke="#2877F0" stroke-width="1.6" stroke-linecap="round" stroke-linejoin="round"/>
<path d="M12.25 20V16.75C12.25 14.9551 13.7051 13.5 15.5 13.5H16.5C18.2949 13.5 19.75 14.9551 19.75 16.75V20" stroke="#2877F0" stroke-width="1.6" stroke-linecap="round" stroke-linejoin="round"/>
</svg>
