<svg width="16" height="16" viewBox="0 0 16 16" fill="none" xmlns="http://www.w3.org/2000/svg">
<path d="M13.3327 9.33301V7.10427C13.3327 6.55924 13.3327 6.28674 13.2312 6.04171C13.1297 5.79669 12.937 5.604 12.5516 5.21863L9.39395 2.06093C9.06135 1.72834 8.89508 1.56204 8.68902 1.46351C8.64615 1.44301 8.60228 1.42482 8.55748 1.40901C8.34208 1.33301 8.10695 1.33301 7.63655 1.33301C5.47323 1.33301 4.39156 1.33301 3.6589 1.92372C3.51089 2.04306 3.37607 2.17788 3.25673 2.32589C2.66602 3.05855 2.66602 4.14022 2.66602 6.30357V9.33301C2.66602 11.8471 2.66602 13.1043 3.44706 13.8853C4.22812 14.6663 5.48519 14.6663 7.99935 14.6663M8.66602 1.66634V1.99967C8.66602 3.88529 8.66602 4.8281 9.25182 5.41389C9.83762 5.99967 10.7804 5.99967 12.666 5.99967H12.9993" stroke="#616161" stroke-linecap="round" stroke-linejoin="round"/>
<path d="M11.3333 14.667C11.7379 14.2738 13.3333 13.2272 13.3333 12.667C13.3333 12.1068 11.7379 11.0602 11.3333 10.667M12.6667 12.667H8" stroke="#616161" stroke-linecap="round" stroke-linejoin="round"/>
</svg>
