<svg width="36" height="36" viewBox="0 0 36 36" fill="none" xmlns="http://www.w3.org/2000/svg">
<path d="M0 12C0 5.37258 5.37258 0 12 0H24C30.6274 0 36 5.37258 36 12V24C36 30.6274 30.6274 36 24 36H12C5.37258 36 0 30.6274 0 24V12Z" fill="#E3D8FD" fill-opacity="0.44"/>
<path d="M22.511 14.7013L22.0444 16.4782H13.4727L13.9329 14.7013H22.511ZM18.0558 24.545L13.6836 19.3419L13.69 17.7439H15.8505C16.332 17.7439 16.7347 17.6544 17.0586 17.4754C17.3825 17.2964 17.6254 17.0535 17.7873 16.7467C17.9492 16.4399 18.0323 16.0905 18.0366 15.6984C18.0323 15.1104 17.8597 14.6309 17.5188 14.2602C17.1822 13.8852 16.6261 13.6977 15.8505 13.6977H13.4727L13.9968 11.4541H15.8505C16.9371 11.4541 17.8427 11.6182 18.5671 11.9463C19.2958 12.2702 19.8413 12.7325 20.2035 13.3334C20.57 13.9342 20.7553 14.6501 20.7596 15.4811C20.7553 16.2183 20.6317 16.8618 20.3888 17.4115C20.1502 17.9612 19.7731 18.4193 19.2575 18.7858C18.7461 19.1523 18.0792 19.425 17.2567 19.604L17.1545 19.6423L21.0664 24.43V24.545H18.0558ZM22.5238 11.4541L22.0444 13.2567H14.9876L15.467 11.4541H22.5238Z" fill="#8B5CF6"/>
</svg>
