<svg width="24" height="24" viewBox="0 0 24 24" fill="none" xmlns="http://www.w3.org/2000/svg">
<path d="M12 22C17.5228 22 22 17.5228 22 12C22 6.47715 17.5228 2 12 2C6.47715 2 2 6.47715 2 12C2 17.5228 6.47715 22 12 22Z" stroke="#FB8C00" stroke-width="1.5" stroke-linecap="round" stroke-linejoin="round"/>
<path d="M8 15C8.91212 16.2144 10.3643 17 12 17C13.6357 17 15.0879 16.2144 16 15" stroke="#FB8C00" stroke-width="1.5" stroke-linecap="round" stroke-linejoin="round"/>
<path d="M15.625 8.387V8.91649M8.375 8.387V8.91649M8.75 8.75C8.75 8.33579 8.58211 8 8.375 8C8.16789 8 8 8.33579 8 8.75C8 9.16421 8.16789 9.5 8.375 9.5C8.58211 9.5 8.75 9.16421 8.75 8.75ZM16 8.75C16 8.33579 15.8321 8 15.625 8C15.4179 8 15.25 8.33579 15.25 8.75C15.25 9.16421 15.4179 9.5 15.625 9.5C15.8321 9.5 16 9.16421 16 8.75Z" stroke="#FB8C00" stroke-width="1.5" stroke-linecap="round" stroke-linejoin="round"/>
</svg>
